# Blender v2.76 (sub 0) OBJ File: ''
# www.blender.org
mtllib grass.mtl
o Plane
v -14.693507 -0.105314 14.716692
v 14.745893 -0.105314 14.716692
v -14.693507 -0.105314 -14.722708
v 14.745893 -0.105314 -14.722708
v -14.693507 5.609764 -14.722708
v -14.693507 5.609764 14.716692
v 15.860947 5.125443 13.920036
v 14.745893 4.269111 -14.722708
v -14.693507 5.609764 -0.003008
v 0.026193 5.609764 14.716692
v 14.745893 5.609764 -0.003008
v 0.026193 5.609764 -14.722708
v 0.026193 5.609764 -0.003008
v -14.693507 5.609764 7.356842
v 8.501097 5.125443 13.920036
v 14.745893 4.269111 -7.362858
v -7.333657 5.609764 -14.722708
v -14.693507 5.609764 -7.362858
v -7.333657 5.609764 14.716692
v 15.860947 5.125443 6.560186
v 7.386043 4.269111 -14.722708
v 0.026193 5.609764 -7.362858
v 0.026193 5.609764 7.356842
v 7.386043 5.609764 -0.003008
v 8.501097 5.125443 6.560186
v -7.333657 5.609764 7.356842
v -7.333657 5.609764 -7.362858
v 7.386043 4.269111 -7.362858
v -14.693507 12.309492 -7.362858
v -14.693507 12.309492 -0.003008
v 0.026193 12.309492 7.356842
v 0.026193 12.309492 -0.003008
v -7.333657 12.309492 -0.003008
v -14.693507 12.309492 7.356842
v 0.026193 12.309492 -7.362858
v -7.333657 12.309492 7.356842
v -7.333657 12.309492 -7.362858
vt 0.000071 0.999929
vt 0.500000 0.999929
vt 0.500000 0.000071
vt 0.500000 0.749965
vt 0.375018 0.999929
vt 0.000071 0.000071
vt 0.000071 0.500000
vt 0.250035 0.000071
vt 0.250035 0.999929
vt 0.250035 0.749965
vt 0.125053 0.999929
vt 0.250035 0.500000
vt 0.250035 0.250035
vt 0.375018 0.250035
vt 0.500000 0.250035
vt 0.500000 0.500000
vt 0.375018 0.500000
vt 0.375018 0.000071
vt 0.000071 0.250035
vt 0.125053 0.000071
vt 0.125053 0.250035
vt 0.125053 0.749965
vt 0.000071 0.749965
vt 0.375018 0.749965
vt 0.125053 0.500000
vn 0.000000 -1.000000 -0.000000
vn 0.000000 1.000000 0.000000
vn -1.000000 -0.000000 0.000000
vn 0.000000 0.000000 1.000000
vn 1.000000 -0.000000 0.000000
vn 0.000000 0.000000 -1.000000
vn -0.000000 0.997300 0.073600
vn 0.062800 0.996000 0.062800
vn 0.057100 0.998400 0.000000
vn 0.179200 0.983800 -0.000000
vn 0.176400 0.968400 -0.176400
vn -0.000000 0.983800 -0.179200
vn -0.000000 0.150600 0.988600
vn 0.105400 0.271600 0.956600
vn 0.978000 -0.208500 -0.000000
vn 0.865200 -0.467400 -0.181500
usemtl Material.001
s off
f 3/1/1 4/2/1 2/3/1
f 16/4/2 8/2/2 21/5/2
f 1/6/3 9/7/3 3/1/3
f 2/3/4 10/8/4 1/6/4
f 4/2/5 16/4/5 2/3/5
f 3/1/6 12/9/6 21/5/6
f 22/10/2 12/9/2 17/11/2
f 13/12/5 32/12/5 31/13/5
f 25/14/7 20/15/7 11/16/7
f 23/13/8 25/14/8 24/17/8
f 15/18/9 25/14/9 23/13/9
f 7/3/2 20/15/2 25/14/2
f 14/19/3 34/19/3 30/7/3
f 19/20/2 26/21/2 14/19/2
f 10/8/2 23/13/2 26/21/2
f 27/22/2 17/11/2 5/1/2
f 22/10/5 35/10/5 32/12/5
f 9/7/3 30/7/3 29/23/3
f 28/24/10 21/5/10 12/9/10
f 24/17/11 28/24/11 22/10/11
f 11/16/12 16/4/12 28/24/12
f 31/13/2 32/12/2 33/25/2
f 36/21/2 33/25/2 30/7/2
f 33/25/2 37/22/2 29/23/2
f 32/12/2 35/10/2 37/22/2
f 18/23/6 29/23/6 37/22/6
f 26/21/4 36/21/4 34/19/4
f 27/22/6 37/22/6 35/10/6
f 23/13/4 31/13/4 36/21/4
f 1/6/1 3/1/1 2/3/1
f 28/24/2 16/4/2 21/5/2
f 5/1/3 3/1/3 18/23/3
f 1/6/3 6/6/3 14/19/3
f 14/19/3 9/7/3 1/6/3
f 18/23/3 3/1/3 9/7/3
f 6/6/4 1/6/4 19/20/4
f 2/3/13 7/3/13 15/18/13
f 15/18/14 10/8/14 2/3/14
f 19/20/4 1/6/4 10/8/4
f 7/3/15 2/3/15 20/15/15
f 4/2/5 8/2/5 16/4/5
f 16/4/5 11/16/5 2/3/5
f 20/15/16 2/3/16 11/16/16
f 8/2/6 4/2/6 21/5/6
f 3/1/6 5/1/6 17/11/6
f 17/11/6 12/9/6 3/1/6
f 21/5/6 4/2/6 3/1/6
f 27/22/2 22/10/2 17/11/2
f 23/13/5 13/12/5 31/13/5
f 24/17/7 25/14/7 11/16/7
f 13/12/2 23/13/2 24/17/2
f 10/8/9 15/18/9 23/13/9
f 15/18/2 7/3/2 25/14/2
f 9/7/3 14/19/3 30/7/3
f 6/6/2 19/20/2 14/19/2
f 19/20/2 10/8/2 26/21/2
f 18/23/2 27/22/2 5/1/2
f 13/12/5 22/10/5 32/12/5
f 18/23/3 9/7/3 29/23/3
f 22/10/10 28/24/10 12/9/10
f 13/12/2 24/17/2 22/10/2
f 24/17/12 11/16/12 28/24/12
f 36/21/2 31/13/2 33/25/2
f 34/19/2 36/21/2 30/7/2
f 30/7/2 33/25/2 29/23/2
f 33/25/2 32/12/2 37/22/2
f 27/22/6 18/23/6 37/22/6
f 14/19/4 26/21/4 34/19/4
f 22/10/6 27/22/6 35/10/6
f 26/21/4 23/13/4 36/21/4
